<?xml version="1.0" encoding="utf-8"?>
<!-- Generator: Adobe Illustrator 23.0.5, SVG Export Plug-In . SVG Version: 6.00 Build 0)  -->
<svg version="1.1" id="Layer_1" xmlns="http://www.w3.org/2000/svg" xmlns:xlink="http://www.w3.org/1999/xlink" x="0px" y="0px"
	 viewBox="0 0 1771 2085.5" style="enable-background:new 0 0 1771 2085.5;" xml:space="preserve">
<style type="text/css">
	.st0{fill:#1572B6;}
	.st1{fill:#33A9DC;}
	.st2{fill:#FFFFFF;}
	.st3{fill:#EBEBEB;}
</style>
<path class="st0" d="M161.2,1884.8L0,77.1h1771l-161.4,1807.4l-725.2,201L161.2,1884.8z"/>
<path class="st1" d="M885.5,1931.9l586-162.5l137.8-1544.5H885.5L885.5,1931.9z"/>
<path class="st2" d="M885.5,879.8h293.4l20.2-227H885.5V431.2h556l-5.3,59.5l-54.5,611H885.5L885.5,879.8z"/>
<path class="st3" d="M886.7,1455.6h-1l-246.9-66.7L623,1212.1H400.6l31.1,348.1l454.2,126.4h1.3v-231L886.7,1455.6z"/>
<path class="st2" d="M1160.1,1092l-26.7,296.7l-247.3,66.7v231l454.5-126l3.3-37.5l38.6-431h-222.4L1160.1,1092z"/>
<path class="st3" d="M886.3,431.2v221.7H350.9l-4.6-49.8l-10.1-112.4l-5.3-59.5L886.3,431.2z M885.5,879.8v221.7H641.4l-4.3-49.8
	L627,939.3l-5.3-59.5L885.5,879.8L885.5,879.8z"/>
</svg>
