<?xml version="1.0" encoding="utf-8"?>
<!-- Generator: Adobe Illustrator 23.0.5, SVG Export Plug-In . SVG Version: 6.00 Build 0)  -->
<svg version="1.1" id="Layer_1" xmlns="http://www.w3.org/2000/svg" xmlns:xlink="http://www.w3.org/1999/xlink" x="0px" y="0px"
	 viewBox="0 0 503.1 713" style="enable-background:new 0 0 503.1 713;" xml:space="preserve">
<style type="text/css">
	.st0{fill-rule:evenodd;clip-rule:evenodd;fill:#FFFFFF;}
	.st1{fill-rule:evenodd;clip-rule:evenodd;fill:#A6A385;}
	.st2{fill-rule:evenodd;clip-rule:evenodd;fill:#499D4A;}
	.st3{fill-rule:evenodd;clip-rule:evenodd;fill:#58AA50;}
</style>
<g>
	<path class="st0" d="M263.2,703.5l-18.5-6.3c0,0,2.3-94.2-31.5-100.9c-22.5-26.1,3.6-1108.5,84.7-3.6c0,0-27.9,14-32.9,37.9
		C259.6,653.9,263.2,703.5,263.2,703.5L263.2,703.5z"/>
	<path class="st1" d="M263.2,703.5l-18.5-6.3c0,0,2.3-94.2-31.5-100.9c-22.5-26.1,3.6-1108.5,84.7-3.6c0,0-27.9,14-32.9,37.9
		C259.6,653.9,263.2,703.5,263.2,703.5L263.2,703.5z"/>
	<path class="st0" d="M273.1,612.4c0,0,161.8-106.3,123.9-327.6C360.5,124,274.5,71.3,265,51c-10.4-14.4-20.3-39.6-20.3-39.6
		l6.8,447.4C251.5,459.2,237.5,595.8,273.1,612.4"/>
	<path class="st2" d="M273.1,612.4c0,0,161.8-106.3,123.9-327.6C360.5,124,274.5,71.3,265,51c-10.4-14.4-20.3-39.6-20.3-39.6
		l6.8,447.4C251.5,459.2,237.5,595.8,273.1,612.4"/>
	<path class="st0" d="M235.3,618.3c0,0-151.9-103.6-142.8-286.1C101,149.7,208.2,60,229,43.8c13.5-14.4,14-19.8,14.9-34.2
		c9.5,20.3,7.7,303.3,9,336.6C256.9,474.6,245.6,594,235.3,618.3z"/>
	<path class="st3" d="M235.3,618.3c0,0-151.9-103.6-142.8-286.1C101,149.7,208.2,60,229,43.8c13.5-14.4,14-19.8,14.9-34.2
		c9.5,20.3,7.7,303.3,9,336.6C256.9,474.6,245.6,594,235.3,618.3z"/>
</g>
</svg>
